<svg width="516" height="386" viewBox="0 0 516 386" fill="none" xmlns="http://www.w3.org/2000/svg">
<g filter="url(#filter0_fg_1_12)">
<path d="M280 289.4V259.4H307.3V204.8H334.3V180.8H307.3V126.8H280V96.5H310.3V123.8H337.3V178.1H361.9V123.8H388.9V96.5H419.5V126.8H391.9V180.8H364.9V204.8H391.9V259.4H419.5V289.4H388.9V262.4H361.9V207.8H337.3V262.4H310.3V289.4H280Z" fill="white"/>
</g>
<g filter="url(#filter1_nn_1_12)">
<path d="M264.5 267.8L327.25 184.05L264.5 100.3H294.5L342 168.55L390.5 100.3H420.5L354.75 186.55L420.5 267.8H390.5L340 202.3L292 267.8H264.5Z" fill="black"/>
</g>
<g filter="url(#filter2_n_1_12)">
<path d="M97.375 213.8L43 153.925V213.8H31.75V130.05H36L90.375 190.675V130.05H101.625V213.8H97.375ZM154.25 215.675C149.5 215.675 145.125 214.842 141.125 213.175C137.208 211.425 133.75 209.05 130.75 206.05C127.833 202.967 125.583 199.467 124 195.55C122.417 191.55 121.625 187.342 121.625 182.925C121.625 178.508 122.417 174.342 124 170.425C125.583 166.425 127.833 162.925 130.75 159.925C133.75 156.842 137.208 154.425 141.125 152.675C145.125 150.925 149.5 150.05 154.25 150.05C159 150.05 163.333 150.925 167.25 152.675C171.25 154.425 174.708 156.842 177.625 159.925C180.625 162.925 182.917 166.425 184.5 170.425C186.083 174.342 186.875 178.508 186.875 182.925C186.875 187.342 186.083 191.55 184.5 195.55C182.917 199.467 180.625 202.967 177.625 206.05C174.708 209.05 171.25 211.425 167.25 213.175C163.333 214.842 159 215.675 154.25 215.675ZM154.25 205.675C158.75 205.675 162.625 204.633 165.875 202.55C169.208 200.383 171.75 197.592 173.5 194.175C175.333 190.675 176.25 186.925 176.25 182.925C176.25 178.842 175.333 175.092 173.5 171.675C171.75 168.175 169.208 165.383 165.875 163.3C162.625 161.133 158.75 160.05 154.25 160.05C149.833 160.05 145.958 161.133 142.625 163.3C139.292 165.383 136.708 168.175 134.875 171.675C133.125 175.092 132.25 178.842 132.25 182.925C132.25 186.925 133.125 190.675 134.875 194.175C136.708 197.592 139.292 200.383 142.625 202.55C145.958 204.633 149.833 205.675 154.25 205.675ZM225.5 215.675C222 215.675 218.958 214.967 216.375 213.55C213.792 212.05 211.792 209.967 210.375 207.3C208.958 204.633 208.25 201.55 208.25 198.05V160.925H196.25V157.925C200.333 156.092 203.75 153.092 206.5 148.925C209.25 144.675 211.667 139.467 213.75 133.3H218.5V151.3H238.625V160.925H218.5V197.55C218.5 200.133 219.333 202.175 221 203.675C222.75 205.175 225 205.925 227.75 205.925C230.25 205.925 232.5 205.633 234.5 205.05C236.583 204.383 238.25 203.675 239.5 202.925V211.925C237.833 213.258 235.875 214.217 233.625 214.8C231.375 215.383 228.667 215.675 225.5 215.675ZM285.875 215.675C281.125 215.675 276.75 214.842 272.75 213.175C268.833 211.425 265.375 209.05 262.375 206.05C259.458 202.967 257.208 199.467 255.625 195.55C254.042 191.55 253.25 187.342 253.25 182.925C253.25 177.008 254.542 171.55 257.125 166.55C259.708 161.55 263.25 157.55 267.75 154.55C272.333 151.55 277.542 150.05 283.375 150.05C289.792 150.05 295.125 151.383 299.375 154.05C303.625 156.717 306.792 160.342 308.875 164.925C311.042 169.508 312.125 174.675 312.125 180.425V186.55H262.875V177.8H302C301.583 173.717 300.417 170.383 298.5 167.8C296.667 165.217 294.417 163.3 291.75 162.05C289.083 160.717 286.292 160.05 283.375 160.05C279.375 160.05 275.917 161.133 273 163.3C270.083 165.383 267.833 168.175 266.25 171.675C264.667 175.092 263.875 178.842 263.875 182.925C263.875 186.925 264.75 190.675 266.5 194.175C268.333 197.592 270.917 200.383 274.25 202.55C277.583 204.633 281.458 205.675 285.875 205.675C290.375 205.675 294.542 204.55 298.375 202.3C302.292 199.967 305.583 197.425 308.25 194.675V205.8C307.083 207.217 305.333 208.717 303 210.3C300.75 211.8 298.125 213.05 295.125 214.05C292.208 215.133 289.125 215.675 285.875 215.675Z" fill="white"/>
</g>
<defs>
<filter id="filter0_fg_1_12" x="183.5" y="0" width="332.5" height="385.9" filterUnits="userSpaceOnUse" color-interpolation-filters="sRGB">
<feFlood flood-opacity="0" result="BackgroundImageFix"/>
<feBlend mode="normal" in="SourceGraphic" in2="BackgroundImageFix" result="shape"/>
<feGaussianBlur stdDeviation="15.4" result="effect1_foregroundBlur_1_12"/>
<feTurbulence type="fractalNoise" baseFrequency="1.4285714626312256 1.4285714626312256" numOctaves="3" seed="9656" />
<feDisplacementMap in="effect1_foregroundBlur_1_12" scale="193" xChannelSelector="R" yChannelSelector="G" result="displacedImage" width="100%" height="100%" />
<feMerge result="effect2_texture_1_12">
<feMergeNode in="displacedImage"/>
</feMerge>
</filter>
<filter id="filter1_nn_1_12" x="264.5" y="100.3" width="156" height="167.5" filterUnits="userSpaceOnUse" color-interpolation-filters="sRGB">
<feFlood flood-opacity="0" result="BackgroundImageFix"/>
<feBlend mode="normal" in="SourceGraphic" in2="BackgroundImageFix" result="shape"/>
<feTurbulence type="fractalNoise" baseFrequency="0.0099999997764825821 0.0099999997764825821" stitchTiles="stitch" numOctaves="3" result="noise" seed="9104" />
<feColorMatrix in="noise" type="luminanceToAlpha" result="alphaNoise" />
<feComponentTransfer in="alphaNoise" result="coloredNoise1">
<feFuncA type="discrete" tableValues="1 1 1 1 1 1 1 1 1 1 1 1 1 1 1 1 1 1 1 1 1 1 1 1 1 1 1 1 1 1 1 1 1 1 1 1 1 1 1 1 1 1 1 1 1 1 1 1 1 1 1 0 0 0 0 0 0 0 0 0 0 0 0 0 0 0 0 0 0 0 0 0 0 0 0 0 0 0 0 0 0 0 0 0 0 0 0 0 0 0 0 0 0 0 0 0 0 0 0 0 "/>
</feComponentTransfer>
<feComposite operator="in" in2="shape" in="coloredNoise1" result="noise1Clipped" />
<feComponentTransfer in="alphaNoise" result="coloredNoise2">
<feFuncA type="discrete" tableValues="0 0 0 0 0 0 0 0 0 0 0 0 0 0 0 0 0 0 0 0 0 0 0 0 0 0 0 0 0 0 0 0 0 0 0 0 0 0 0 0 0 0 0 0 0 0 0 0 0 1 1 1 1 1 1 1 1 1 1 1 1 1 1 1 1 1 1 1 1 1 1 1 1 1 1 1 1 1 1 1 1 1 1 1 1 1 1 1 1 1 1 1 1 1 1 1 1 1 1 1 "/>
</feComponentTransfer>
<feComposite operator="in" in2="shape" in="coloredNoise2" result="noise2Clipped" />
<feFlood flood-color="rgba(0, 0, 0, 0.25)" result="color1Flood" />
<feComposite operator="in" in2="noise1Clipped" in="color1Flood" result="color1" />
<feFlood flood-color="#FFFFFF" result="color2Flood" />
<feComposite operator="in" in2="noise2Clipped" in="color2Flood" result="color2" />
<feMerge result="effect1_noise_1_12">
<feMergeNode in="shape" />
<feMergeNode in="color1" />
<feMergeNode in="color2" />
</feMerge>
<feTurbulence type="fractalNoise" baseFrequency="1.25 1.25" stitchTiles="stitch" numOctaves="3" result="noise" seed="3496" />
<feColorMatrix in="noise" type="luminanceToAlpha" result="alphaNoise" />
<feComponentTransfer in="alphaNoise" result="coloredNoise1">
<feFuncA type="discrete" tableValues="1 1 1 1 1 1 1 1 1 1 1 1 1 1 1 1 1 1 1 1 1 1 1 1 1 1 1 1 1 1 1 1 1 1 1 1 1 1 1 1 1 1 1 1 1 1 1 1 1 1 1 0 0 0 0 0 0 0 0 0 0 0 0 0 0 0 0 0 0 0 0 0 0 0 0 0 0 0 0 0 0 0 0 0 0 0 0 0 0 0 0 0 0 0 0 0 0 0 0 0 "/>
</feComponentTransfer>
<feComposite operator="in" in2="effect1_noise_1_12" in="coloredNoise1" result="noise1Clipped" />
<feComponentTransfer in="alphaNoise" result="coloredNoise2">
<feFuncA type="discrete" tableValues="0 0 0 0 0 0 0 0 0 0 0 0 0 0 0 0 0 0 0 0 0 0 0 0 0 0 0 0 0 0 0 0 0 0 0 0 0 0 0 0 0 0 0 0 0 0 0 0 0 1 1 1 1 1 1 1 1 1 1 1 1 1 1 1 1 1 1 1 1 1 1 1 1 1 1 1 1 1 1 1 1 1 1 1 1 1 1 1 1 1 1 1 1 1 1 1 1 1 1 1 "/>
</feComponentTransfer>
<feComposite operator="in" in2="effect1_noise_1_12" in="coloredNoise2" result="noise2Clipped" />
<feFlood flood-color="rgba(0, 0, 0, 0.25)" result="color1Flood" />
<feComposite operator="in" in2="noise1Clipped" in="color1Flood" result="color1" />
<feFlood flood-color="rgba(255, 255, 255, 0.25)" result="color2Flood" />
<feComposite operator="in" in2="noise2Clipped" in="color2Flood" result="color2" />
<feMerge result="effect2_noise_1_12">
<feMergeNode in="effect1_noise_1_12" />
<feMergeNode in="color1" />
<feMergeNode in="color2" />
</feMerge>
</filter>
<filter id="filter2_n_1_12" x="31.75" y="130.05" width="280.375" height="85.625" filterUnits="userSpaceOnUse" color-interpolation-filters="sRGB">
<feFlood flood-opacity="0" result="BackgroundImageFix"/>
<feBlend mode="normal" in="SourceGraphic" in2="BackgroundImageFix" result="shape"/>
<feTurbulence type="fractalNoise" baseFrequency="0.045871559530496597 0.045871559530496597" stitchTiles="stitch" numOctaves="3" result="noise" seed="5850" />
<feColorMatrix in="noise" type="luminanceToAlpha" result="alphaNoise" />
<feComponentTransfer in="alphaNoise" result="coloredNoise1">
<feFuncA type="discrete" tableValues="1 1 1 1 1 1 1 1 1 1 1 1 1 1 1 1 1 1 1 1 1 1 1 1 1 1 1 1 1 1 1 1 1 1 1 1 1 1 1 1 1 1 1 1 1 1 1 1 1 1 1 0 0 0 0 0 0 0 0 0 0 0 0 0 0 0 0 0 0 0 0 0 0 0 0 0 0 0 0 0 0 0 0 0 0 0 0 0 0 0 0 0 0 0 0 0 0 0 0 0 "/>
</feComponentTransfer>
<feComposite operator="in" in2="shape" in="coloredNoise1" result="noise1Clipped" />
<feComponentTransfer in="alphaNoise" result="coloredNoise2">
<feFuncA type="discrete" tableValues="0 0 0 0 0 0 0 0 0 0 0 0 0 0 0 0 0 0 0 0 0 0 0 0 0 0 0 0 0 0 0 0 0 0 0 0 0 0 0 0 0 0 0 0 0 0 0 0 0 1 1 1 1 1 1 1 1 1 1 1 1 1 1 1 1 1 1 1 1 1 1 1 1 1 1 1 1 1 1 1 1 1 1 1 1 1 1 1 1 1 1 1 1 1 1 1 1 1 1 1 "/>
</feComponentTransfer>
<feComposite operator="in" in2="shape" in="coloredNoise2" result="noise2Clipped" />
<feFlood flood-color="#000000" result="color1Flood" />
<feComposite operator="in" in2="noise1Clipped" in="color1Flood" result="color1" />
<feFlood flood-color="#B8B8B8" result="color2Flood" />
<feComposite operator="in" in2="noise2Clipped" in="color2Flood" result="color2" />
<feMerge result="effect1_noise_1_12">
<feMergeNode in="shape" />
<feMergeNode in="color1" />
<feMergeNode in="color2" />
</feMerge>
</filter>
</defs>
</svg>
